<svg width="54" height="28" viewBox="0 0 54 28" fill="none" xmlns="http://www.w3.org/2000/svg">
<g clip-path="url(#clip0_24_177)">
<path d="M8.214 27.812C3.805 27.812 0 25.148 0 19.744H4.37C4.37 22.292 6.18 23.604 8.214 23.604C10.211 23.604 11.982 22.408 11.982 19.436V0H16.392V19.821C16.391 25.496 12.51 27.812 8.214 27.812ZM25.989 27.763C22.371 27.763 19.546 25.717 19.546 21.355V2.905H23.691V8.27H28.251V12.053H23.691V20.66C23.691 23.053 24.708 23.902 26.856 23.902C27.647 23.902 28.476 23.786 29.079 23.555V27.338C28.249 27.608 27.27 27.763 25.989 27.763ZM37.149 27.763C33.532 27.763 30.707 25.717 30.707 21.355V2.905H34.852V8.27H40.205V12.053H34.852V20.66C34.852 23.053 35.869 23.902 38.017 23.902C38.808 23.902 39.637 23.786 40.24 23.555V27.338C39.41 27.608 38.43 27.763 37.15 27.763H37.149ZM43.5 8.344H47.645V11.779C48.361 9.579 50.471 8.151 52.619 8.151C53.146 8.151 53.674 8.189 54.239 8.305V12.667C53.523 12.437 52.92 12.32 52.166 12.32C49.792 12.32 47.645 14.366 47.645 18.226V27.644H43.5V8.344Z" fill="#7A40ED"/>
</g>
<defs>
<clipPath id="clip0_24_177">
<rect width="54" height="28" fill="white"/>
</clipPath>
</defs>
</svg>
